<?xml version="1.0" encoding="utf-8"?>
<!-- Generator: Adobe Illustrator 27.3.1, SVG Export Plug-In . SVG Version: 6.00 Build 0)  -->
<svg version="1.1" id="Camada_1" xmlns="http://www.w3.org/2000/svg" xmlns:xlink="http://www.w3.org/1999/xlink" x="0px" y="0px"
	 viewBox="0 0 50 50" style="enable-background:new 0 0 50 50;" xml:space="preserve">
<style type="text/css">
	.st0{fill:#FFFFFF;}
</style>
<g>
	<g>
		<path class="st0" d="M2.09,26.67c0-1.27,0-2.54,0-3.81c0.17-1.28,0.31-2.58,0.67-3.82C5.16,10.6,10.54,5.05,18.9,2.42
			c1.46-0.46,2.97-0.66,4.48-0.85c1.27,0,2.54,0,3.81,0c0.34,0.05,0.68,0.1,1.03,0.14c5.34,0.7,9.94,2.95,13.67,6.82
			c4.91,5.09,7.09,11.22,6.54,18.29c-0.25,3.24-1.2,6.27-2.77,9.11c-4.74,8.6-14.47,13.61-24.48,11.66
			c-9.24-1.8-15.27-7.39-18.2-16.32C2.49,29.78,2.28,28.22,2.09,26.67z M44.83,24.77c0-10.76-8.75-19.53-19.49-19.55
			C14.53,5.21,5.75,13.97,5.74,24.76c0,10.78,8.76,19.55,19.54,19.55C36.06,44.31,44.83,35.54,44.83,24.77z"/>
		<path class="st0" d="M30.99,26.43c-1.12,0-2.23,0.01-3.35-0.01c-0.4-0.01-0.52,0.14-0.52,0.53c0.01,2.19,0.01,4.38,0,6.57
			c-0.01,1.08-0.76,1.87-1.79,1.89c-1.08,0.02-1.88-0.76-1.89-1.87c-0.01-2.14,0-4.29-0.01-6.43c0-0.67,0-0.67-0.68-0.67
			c-2.1,0-4.2,0-6.29,0c-1.19,0-1.99-0.74-1.99-1.81c0-1.1,0.81-1.87,2-1.87c2.11-0.01,4.23,0,6.34,0c0.63,0,0.63,0,0.63-0.64
			c0-2.16-0.01-4.32,0.01-6.48c0.01-1.33,1.28-2.19,2.49-1.73c0.74,0.28,1.18,0.94,1.18,1.81c0.01,2.13,0,4.26,0,6.38
			c0,0.65,0,0.65,0.66,0.65c2.11,0,4.23-0.01,6.34,0c1.18,0.01,1.99,0.8,1.97,1.9c-0.02,0.97-0.78,1.76-1.75,1.77
			C33.23,26.44,32.11,26.43,30.99,26.43C30.99,26.43,30.99,26.43,30.99,26.43z"/>
	</g>
</g>
</svg>
